<?xml version="1.0" standalone="no"?>
<!DOCTYPE svg PUBLIC "-//W3C//DTD SVG 20010904//EN"
 "http://www.w3.org/TR/2001/REC-SVG-20010904/DTD/svg10.dtd">
<svg version="1.0" xmlns="http://www.w3.org/2000/svg"
 width="144.000000pt" height="131.000000pt" viewBox="0 0 144.000000 131.000000"
 preserveAspectRatio="xMidYMid meet">
<metadata>
Created by potrace 1.16, written by Peter Selinger 2001-2019
</metadata>
<g transform="translate(0.000000,131.000000) scale(0.100000,-0.100000)"
fill="#000000" stroke="none">
<path d="M465 1285 c-91 -30 -129 -48 -190 -91 -62 -44 -171 -154 -180 -183
-3 -11 -10 -21 -15 -21 -5 0 -14 -17 -21 -37 -7 -21 -21 -56 -33 -78 -19 -35
-21 -57 -21 -190 0 -170 4 -201 34 -267 46 -102 181 -267 231 -283 11 -3 20
-10 20 -14 0 -4 19 -16 43 -26 23 -10 49 -24 57 -30 8 -7 47 -22 85 -36 62
-21 91 -24 242 -26 135 -2 182 1 215 13 24 9 54 18 67 20 13 3 38 12 55 22 17
9 33 16 36 17 3 0 30 18 60 39 68 49 176 156 185 185 3 11 10 21 15 21 5 0 14
17 20 38 7 20 19 47 26 60 35 54 53 280 29 358 -7 24 -11 45 -9 47 4 4 -47
117 -69 152 -65 106 -205 234 -273 251 -13 3 -24 10 -24 15 0 4 -19 14 -42 20
-24 7 -47 16 -53 20 -24 17 -145 30 -277 28 -117 -2 -156 -6 -213 -24z m440
-45 c197 -53 347 -172 429 -342 79 -163 94 -303 46 -443 -84 -245 -373 -425
-680 -425 -78 0 -81 1 -91 26 -25 67 -15 283 16 343 20 39 100 98 248 182 134
75 149 93 93 112 -20 7 -46 5 -95 -8 -146 -40 -225 -28 -252 37 -36 86 107
113 281 52 88 -30 163 -35 187 -12 8 9 13 23 10 31 -6 16 -150 92 -249 131
l-66 26 -97 -20 c-123 -25 -159 -25 -75 1 42 13 97 21 155 22 l90 1 114 -58
c198 -101 224 -100 36 2 -60 32 -133 73 -161 90 -28 18 -61 32 -74 32 -42 0
-142 -31 -247 -77 -122 -53 -116 -45 -162 -230 -49 -193 -62 -350 -42 -490 6
-46 5 -53 -9 -53 -22 0 -88 48 -123 90 -133 158 -168 480 -73 668 85 168 287
307 486 333 87 12 218 3 305 -21z"/>
</g>
</svg>
