<?xml version="1.0" standalone="no"?>
<!DOCTYPE svg PUBLIC "-//W3C//DTD SVG 20010904//EN"
 "http://www.w3.org/TR/2001/REC-SVG-20010904/DTD/svg10.dtd">
<svg version="1.0" xmlns="http://www.w3.org/2000/svg"
 width="143.000000pt" height="132.000000pt" viewBox="0 0 143.000000 132.000000"
 preserveAspectRatio="xMidYMid meet">
<metadata>
Created by potrace 1.16, written by Peter Selinger 2001-2019
</metadata>
<g transform="translate(0.000000,132.000000) scale(0.100000,-0.100000)"
fill="#000000" stroke="none">
<path d="M515 1300 c-217 -58 -397 -215 -477 -415 -32 -77 -33 -85 -33 -225 0
-140 1 -148 33 -225 81 -203 273 -366 493 -419 86 -21 272 -21 358 0 220 53
412 216 493 419 32 77 33 85 33 225 0 140 -1 148 -33 225 -81 203 -273 366
-493 419 -93 23 -283 20 -374 -4z m402 -41 c141 -35 258 -112 340 -222 57 -77
87 -142 113 -242 25 -99 25 -191 0 -289 -27 -107 -63 -169 -145 -251 -84 -83
-154 -126 -272 -168 -81 -29 -99 -31 -223 -31 -115 -1 -146 3 -210 22 -115 36
-204 88 -290 169 -66 62 -86 89 -124 166 -53 110 -69 193 -55 294 9 65 43 200
53 210 12 12 52 -14 115 -75 70 -68 79 -86 106 -205 7 -33 125 -156 197 -205
42 -29 48 -31 62 -16 28 27 18 65 -34 134 -26 36 -47 66 -45 68 12 12 84 -28
170 -93 133 -101 230 -132 256 -84 9 17 8 24 -2 31 -8 4 -51 31 -96 59 -86 52
-153 108 -153 128 0 22 22 10 164 -89 130 -90 147 -99 171 -90 67 26 37 63
-122 150 -114 62 -163 97 -163 116 0 23 26 16 44 -11 28 -43 229 -165 271
-165 26 0 29 29 6 54 -12 13 -78 61 -146 107 -111 75 -147 109 -114 109 14 0
98 -61 124 -90 26 -29 94 -75 123 -84 34 -11 28 12 -22 75 -61 78 -170 148
-419 268 -214 103 -267 134 -267 154 0 24 74 59 193 92 112 31 130 33 222 28
55 -3 132 -14 172 -24z"/>
</g>
</svg>
