<?xml version="1.0" standalone="no"?>
<!DOCTYPE svg PUBLIC "-//W3C//DTD SVG 20010904//EN"
 "http://www.w3.org/TR/2001/REC-SVG-20010904/DTD/svg10.dtd">
<svg version="1.0" xmlns="http://www.w3.org/2000/svg"
 width="142.000000pt" height="131.000000pt" viewBox="0 0 142.000000 131.000000"
 preserveAspectRatio="xMidYMid meet">
<metadata>
Created by potrace 1.16, written by Peter Selinger 2001-2019
</metadata>
<g transform="translate(0.000000,131.000000) scale(0.100000,-0.100000)"
fill="#000000" stroke="none">
<path d="M515 1291 c-202 -55 -358 -174 -443 -339 -55 -104 -72 -175 -72 -292
0 -117 17 -188 72 -293 179 -344 666 -466 1021 -256 141 84 262 241 302 395
19 75 19 233 0 308 -55 209 -226 386 -450 462 -69 24 -99 28 -220 31 -114 2
-153 -1 -210 -16z m380 -41 c85 -22 192 -75 209 -104 9 -15 6 -22 -18 -40 -16
-11 -65 -49 -108 -83 l-79 -61 -127 0 c-136 1 -231 -16 -303 -53 -60 -30 -82
-85 -83 -213 -1 -124 16 -142 34 -34 14 87 28 135 41 144 6 3 12 4 14 3 1 -2
-8 -64 -22 -138 l-24 -134 22 -23 c30 -32 39 -30 39 9 0 41 36 187 50 201 22
22 21 -7 -4 -91 -40 -135 -30 -223 25 -223 17 0 19 7 19 63 0 72 26 175 41
160 6 -6 6 -35 -1 -79 -14 -96 -13 -180 3 -191 21 -17 53 -21 107 -12 67 11
127 50 147 96 13 32 13 40 -2 80 -9 23 -20 43 -24 43 -19 0 -40 -37 -34 -59 5
-19 2 -22 -14 -19 -12 2 -29 -8 -45 -27 -36 -41 -45 -26 -19 29 12 24 25 60
28 80 6 41 23 49 23 10 0 -31 20 -28 35 4 13 29 29 28 60 -5 20 -22 25 -38 25
-79 0 -63 -19 -90 -104 -145 l-61 -41 60 7 c65 6 156 43 193 78 39 36 73 115
80 185 l7 65 133 84 c74 47 135 83 137 81 2 -2 9 -41 15 -88 49 -355 -185
-634 -572 -681 -151 -18 -326 15 -460 88 -74 40 -187 150 -231 224 -133 225
-100 484 90 689 65 71 166 145 238 175 118 49 322 60 460 25z"/>
</g>
</svg>
