<?xml version="1.0" standalone="no"?>
<!DOCTYPE svg PUBLIC "-//W3C//DTD SVG 20010904//EN"
 "http://www.w3.org/TR/2001/REC-SVG-20010904/DTD/svg10.dtd">
<svg version="1.0" xmlns="http://www.w3.org/2000/svg"
 width="512.000000pt" height="512.000000pt" viewBox="0 0 512.000000 512.000000"
 preserveAspectRatio="xMidYMid meet">
<metadata>
Created by potrace 1.16, written by Peter Selinger 2001-2019
</metadata>
<g transform="translate(0.000000,512.000000) scale(0.100000,-0.100000)"
fill="#000000" stroke="none">
<path d="M2330 4516 c-134 -32 -160 -42 -232 -87 -207 -133 -330 -344 -331
-569 -1 -108 15 -174 65 -277 70 -144 225 -285 377 -344 34 -13 60 -28 58 -34
-2 -5 -33 -92 -68 -192 l-64 -183 -97 0 c-54 0 -98 3 -98 7 0 3 8 15 18 26 9
11 12 18 7 16 -49 -19 -105 -45 -104 -49 0 -3 21 -15 46 -28 44 -22 45 -22 40
-2 -5 19 -1 20 89 20 52 0 94 -2 94 -4 0 -2 -23 -68 -50 -147 -28 -78 -49
-147 -47 -153 2 -5 28 61 58 147 l54 157 332 0 331 0 28 -82 c15 -46 29 -78
31 -73 3 9 -19 80 -42 137 -6 16 7 18 162 21 l168 3 -170 2 -170 2 -48 138
c-26 75 -47 140 -47 145 0 4 10 7 22 7 20 0 18 3 -15 31 -20 17 -37 34 -37 38
0 5 15 11 33 15 17 3 75 27 127 53 81 40 110 62 191 143 79 79 103 110 137
181 109 221 91 452 -50 656 -104 152 -284 256 -496 288 -127 19 -187 17 -302
-9z m365 -56 c85 -22 192 -75 209 -104 9 -15 6 -22 -18 -40 -16 -11 -65 -49
-108 -83 l-79 -61 -127 0 c-136 1 -231 -16 -303 -53 -60 -30 -82 -85 -83 -213
-1 -124 16 -142 34 -34 14 87 28 135 41 144 6 3 12 4 14 3 1 -2 -8 -64 -22
-138 l-24 -134 22 -23 c30 -32 39 -30 39 9 0 41 36 187 50 201 22 22 21 -7 -4
-91 -40 -135 -30 -223 25 -223 17 0 19 7 19 63 0 72 26 175 41 160 6 -6 6 -35
-1 -79 -14 -96 -13 -180 3 -191 21 -17 53 -21 107 -12 67 11 127 50 147 96 13
32 13 40 -2 80 -9 23 -20 43 -24 43 -19 0 -40 -37 -34 -59 5 -19 2 -22 -14
-19 -12 2 -29 -8 -45 -27 -36 -41 -45 -26 -19 29 12 24 25 60 28 80 6 41 23
49 23 10 0 -31 20 -28 35 4 13 29 29 28 60 -5 20 -22 25 -38 25 -79 0 -63 -19
-90 -104 -145 l-61 -41 60 7 c65 6 156 43 193 78 39 36 73 115 80 185 l7 65
133 84 c74 47 135 83 137 81 2 -2 9 -41 15 -88 28 -202 -31 -374 -174 -507
-214 -200 -581 -237 -858 -86 -74 40 -187 150 -231 224 -133 225 -100 484 90
689 65 71 166 145 238 175 118 49 322 60 460 25z m-318 -1271 c34 -6 113 -10
178 -8 l117 4 -4 -46 c-2 -34 0 -45 10 -42 6 3 12 10 12 16 0 28 21 -18 64
-141 25 -73 46 -135 46 -138 0 -2 -147 -4 -326 -4 -307 0 -326 1 -319 18 3 9
28 80 55 157 27 77 54 155 61 173 8 23 16 31 28 28 9 -3 44 -10 78 -17z"/>
<path d="M925 3571 c-151 -36 -265 -102 -373 -215 -126 -133 -187 -278 -186
-446 1 -162 63 -312 182 -441 140 -151 300 -227 517 -246 l90 -8 15 -42 c14
-43 30 -57 30 -28 0 8 3 15 6 15 4 0 45 -32 91 -71 l85 -72 -74 -39 c-148 -77
-258 -190 -323 -332 -47 -102 -59 -165 -53 -292 8 -168 63 -295 183 -419 249
-257 631 -307 940 -122 138 82 280 252 322 384 9 29 19 53 22 53 3 0 20 -9 36
-20 38 -25 44 -25 38 0 -5 19 0 20 81 22 47 1 95 2 107 2 16 1 26 -13 48 -69
121 -312 457 -515 783 -474 107 13 244 59 333 111 39 23 104 75 145 117 60 60
85 95 122 171 103 211 101 401 -7 586 -38 66 -137 167 -210 217 -33 22 -62 41
-64 43 -5 5 150 184 160 184 5 0 9 -8 10 -17 1 -10 7 1 14 23 23 73 30 80 102
98 37 10 111 39 163 64 127 62 248 178 302 292 78 161 94 334 45 485 -85 258
-335 446 -648 485 -85 11 -105 10 -208 -10 -167 -31 -272 -84 -388 -193 l-53
-50 -56 48 c-56 48 -56 48 -32 61 22 13 22 13 2 14 -12 0 -40 7 -63 15 -22 8
-41 13 -41 12 0 -1 8 -24 19 -51 16 -43 20 -47 29 -30 12 21 6 24 89 -48 l41
-36 -25 -34 c-33 -43 -87 -161 -101 -218 -36 -153 -20 -288 54 -438 40 -83 60
-109 138 -187 72 -72 108 -99 176 -133 125 -62 229 -86 357 -80 57 3 102 3
100 1 -2 -1 -21 -9 -43 -17 -35 -13 -37 -16 -17 -22 21 -6 19 -10 -40 -81 -34
-41 -71 -86 -83 -100 l-20 -26 -90 36 c-90 36 -232 67 -309 67 -37 0 -237 -40
-278 -55 -11 -5 -27 31 -72 162 -32 92 -62 175 -66 184 -7 13 13 35 85 98 52
44 97 81 100 81 3 0 6 -9 6 -19 0 -28 20 -37 20 -9 1 13 7 40 14 61 8 20 12
37 11 37 -2 0 -16 -7 -31 -15 -16 -8 -37 -15 -46 -15 -10 0 -18 -4 -18 -10 0
-5 7 -10 15 -10 8 0 15 -3 14 -7 0 -9 -161 -145 -176 -150 -5 -2 -15 16 -22
39 -24 80 -73 209 -78 204 -2 -2 16 -62 40 -134 l45 -129 -135 -119 c-75 -65
-166 -143 -202 -173 -36 -30 -85 -72 -109 -93 -24 -22 -47 -38 -51 -36 -14 5
-471 402 -471 409 0 3 9 32 20 64 22 65 24 73 11 59 -5 -5 -16 -33 -26 -61 -9
-29 -18 -53 -20 -53 -2 0 -45 37 -97 81 -51 45 -101 86 -110 92 -15 10 -14 16
13 68 87 174 93 393 14 549 l-25 49 68 55 c61 50 67 53 72 34 5 -18 10 -12 33
32 27 52 27 52 5 46 -13 -3 -36 -6 -53 -6 -27 -1 -28 -2 -12 -14 9 -7 17 -15
17 -18 0 -2 -32 -28 -70 -58 l-71 -53 -17 24 c-30 44 -105 119 -153 154 -181
134 -470 201 -664 156z m296 -45 c407 -87 636 -448 514 -812 -63 -187 -197
-319 -386 -380 -44 -14 -82 -24 -85 -22 -2 3 0 52 6 109 6 57 15 187 20 288 8
149 15 201 35 267 32 105 46 204 32 222 -6 7 -19 11 -29 8 -18 -4 -19 0 -13
48 5 41 3 55 -9 65 -34 28 -61 -9 -116 -159 -40 -107 -78 -180 -94 -180 -28 0
-78 149 -113 340 -7 37 -13 46 -32 48 -31 5 -40 -12 -42 -73 -1 -27 -4 -40 -6
-27 -2 12 -13 27 -23 32 -15 8 -22 6 -32 -12 -16 -31 -14 -203 6 -392 9 -81
13 -152 10 -158 -3 -5 -22 10 -42 33 -60 70 -192 116 -209 73 -4 -12 12 -33
55 -73 33 -31 79 -85 103 -121 54 -84 85 -117 130 -140 20 -11 40 -27 44 -37
11 -29 18 -160 9 -166 -15 -9 -147 38 -210 74 -73 41 -178 146 -223 222 -79
134 -111 310 -81 438 59 249 258 424 550 484 86 17 151 18 231 1z m2867 -37
c184 -46 321 -159 406 -334 66 -135 82 -280 46 -419 -27 -107 -63 -169 -145
-251 -84 -83 -154 -126 -272 -168 -81 -29 -99 -31 -223 -31 -115 -1 -146 3
-210 22 -115 36 -204 88 -290 169 -66 62 -86 89 -124 166 -53 110 -69 193 -55
294 9 65 43 200 53 210 12 12 52 -14 115 -75 70 -68 79 -86 106 -205 7 -33
125 -156 197 -205 42 -29 48 -31 62 -16 28 27 18 65 -34 134 -26 36 -47 66
-45 68 12 12 84 -28 170 -93 133 -101 230 -132 256 -84 9 17 8 24 -2 31 -8 4
-51 31 -96 59 -86 52 -153 108 -153 128 0 22 22 10 164 -89 130 -90 147 -99
171 -90 67 26 37 63 -122 150 -114 62 -163 97 -163 116 0 24 17 16 68 -33 48
-47 213 -143 246 -143 27 0 30 29 7 54 -12 13 -78 61 -146 107 -68 46 -124 90
-125 97 -1 29 46 2 137 -80 45 -40 119 -88 138 -88 15 0 0 31 -39 81 -61 78
-170 148 -419 268 -214 103 -267 134 -267 154 0 24 74 59 193 92 112 31 130
33 222 28 55 -3 133 -14 173 -24z m-2315 -953 c9 -7 45 -38 80 -68 34 -30 75
-66 91 -80 l29 -25 -38 -109 c-43 -122 -50 -135 -60 -105 -12 39 -20 21 -17
-40 l4 -60 -154 6 c-129 5 -165 3 -228 -13 l-75 -18 -89 74 c-87 74 -88 75
-65 88 l24 13 -25 1 c-14 1 -38 7 -55 15 -24 11 -26 14 -9 14 52 2 188 46 279
91 107 52 195 119 247 188 36 47 36 47 61 28z m1251 -339 c32 -94 60 -176 62
-182 2 -5 -25 -27 -60 -47 -82 -48 -165 -125 -223 -205 -24 -35 -49 -61 -54
-57 -5 3 -12 23 -15 45 -7 44 -11 47 -29 22 -11 -15 -24 -7 -119 77 -59 51
-105 96 -104 101 3 8 470 417 478 418 3 0 32 -77 64 -172z m-790 -57 c118
-102 215 -188 215 -191 1 -3 -40 -40 -89 -83 l-91 -78 -67 64 c-81 77 -150
122 -252 163 -44 18 -75 36 -72 43 2 6 20 21 40 34 l37 23 -26 5 -27 5 41 113
c37 104 41 112 58 100 10 -7 115 -96 233 -198z m1330 -146 c195 -37 346 -139
438 -295 41 -69 74 -156 63 -167 -4 -4 -41 -7 -84 -7 -74 0 -82 3 -195 58
-134 65 -168 70 -232 32 -84 -49 -122 -167 -73 -229 11 -14 25 -26 30 -26 17
0 49 64 49 97 0 34 29 63 62 63 20 0 25 -18 31 -103 4 -65 19 -86 66 -96 18
-3 32 -10 31 -16 -2 -21 -80 7 -114 40 -11 12 -16 35 -16 81 0 73 -14 84 -30
22 -21 -81 -27 -93 -53 -108 -20 -11 -31 -12 -44 -4 -29 18 -55 71 -62 127
l-6 52 -199 57 c-152 44 -202 55 -208 45 -4 -6 -6 -16 -5 -22 7 -22 89 -68
227 -128 115 -50 145 -68 145 -83 0 -17 -16 -21 -173 -41 -188 -23 -255 -41
-260 -66 -10 -49 118 -49 573 -3 53 5 68 -2 104 -49 34 -45 39 -88 15 -123
-15 -21 -14 -22 14 -22 62 0 128 29 170 73 l40 44 91 6 c109 7 110 5 54 -93
-79 -134 -219 -245 -378 -297 -105 -34 -274 -42 -385 -19 -292 62 -510 311
-510 584 0 216 146 457 337 556 18 9 79 27 136 41 56 13 114 28 127 33 30 12
118 6 224 -14z m-1711 -13 c200 -52 350 -174 436 -354 110 -232 72 -449 -113
-633 -130 -130 -299 -209 -472 -221 -73 -5 -83 -4 -92 13 -35 67 -48 295 -19
350 22 43 100 112 235 206 61 44 112 83 112 87 0 16 -25 31 -51 31 -15 0 -64
-13 -109 -30 -95 -35 -152 -38 -197 -10 -32 19 -51 59 -38 80 3 5 24 19 45 30
50 26 114 26 249 0 116 -22 155 -18 178 17 14 21 12 23 -34 46 -62 32 -253 97
-283 97 -12 0 -67 -14 -122 -31 -131 -40 -147 -32 -22 11 133 46 188 45 314
-5 196 -77 244 -81 60 -5 -58 24 -131 56 -162 72 -32 15 -71 28 -87 28 -71 0
-333 -130 -352 -174 -40 -94 -63 -478 -36 -606 9 -41 19 -83 22 -92 18 -47
-87 2 -155 72 -100 103 -160 269 -160 444 0 153 32 246 124 358 167 205 452
290 729 219z m737 -151 c47 -41 87 -77 88 -82 2 -4 -7 -8 -20 -8 -15 -1 -5 -8
32 -24 33 -14 54 -28 53 -37 -1 -8 -13 -42 -27 -76 -36 -84 -48 -153 -44 -248
l3 -80 -105 -3 c-83 -2 -102 0 -92 10 24 24 11 28 -28 8 -21 -11 -41 -20 -43
-20 -3 0 -2 38 0 84 9 130 -32 273 -113 397 -19 30 -29 18 111 137 58 50 60
51 80 33 11 -10 58 -51 105 -91z"/>
<path d="M3347 1232 c-87 -16 -88 -16 -82 -41 9 -38 33 -51 93 -51 80 0 234
72 216 101 -8 14 -129 8 -227 -9z"/>
<path d="M3535 1159 c-23 -17 -71 -36 -114 -47 l-75 -18 23 -23 c21 -21 30
-23 91 -19 74 6 121 27 153 69 24 33 16 69 -16 68 -12 0 -40 -14 -62 -30z"/>
</g>
</svg>
