<?xml version="1.0" standalone="no"?>
<!DOCTYPE svg PUBLIC "-//W3C//DTD SVG 20010904//EN"
 "http://www.w3.org/TR/2001/REC-SVG-20010904/DTD/svg10.dtd">
<svg version="1.0" xmlns="http://www.w3.org/2000/svg"
 width="147.000000pt" height="134.000000pt" viewBox="0 0 147.000000 134.000000"
 preserveAspectRatio="xMidYMid meet">
<metadata>
Created by potrace 1.16, written by Peter Selinger 2001-2019
</metadata>
<g transform="translate(0.000000,134.000000) scale(0.100000,-0.100000)"
fill="#000000" stroke="none">
<path d="M530 1319 c-256 -67 -454 -254 -514 -486 -21 -79 -21 -237 0 -316 47
-183 190 -350 374 -436 206 -97 474 -97 680 0 184 86 327 253 375 438 21 81
21 231 0 312 -61 235 -261 423 -520 489 -106 27 -289 27 -395 -1z m311 -23
c407 -87 636 -448 514 -812 -63 -187 -197 -319 -386 -380 -44 -14 -82 -24 -85
-22 -2 3 0 52 6 109 6 57 15 187 20 288 8 149 15 201 35 267 32 105 46 204 32
222 -6 7 -19 11 -29 8 -18 -4 -19 0 -13 48 5 41 3 55 -9 65 -34 28 -61 -9
-116 -159 -40 -107 -78 -180 -94 -180 -28 0 -78 149 -113 340 -7 37 -13 46
-32 48 -31 5 -40 -12 -42 -73 -1 -27 -4 -40 -6 -27 -2 12 -13 27 -23 32 -15 8
-22 6 -32 -12 -16 -31 -14 -203 6 -392 9 -81 13 -152 10 -158 -3 -5 -22 10
-42 33 -60 70 -192 116 -209 73 -4 -12 12 -33 55 -73 33 -31 79 -85 103 -121
54 -84 85 -117 130 -140 20 -11 40 -27 44 -37 11 -29 18 -160 9 -166 -15 -9
-147 38 -210 74 -73 41 -178 146 -223 222 -79 134 -111 309 -81 438 58 247
259 424 550 484 86 17 151 18 231 1z"/>
</g>
</svg>
