<?xml version="1.0" standalone="no"?>
<!DOCTYPE svg PUBLIC "-//W3C//DTD SVG 20010904//EN"
 "http://www.w3.org/TR/2001/REC-SVG-20010904/DTD/svg10.dtd">
<svg version="1.0" xmlns="http://www.w3.org/2000/svg"
 width="145.000000pt" height="131.000000pt" viewBox="0 0 145.000000 131.000000"
 preserveAspectRatio="xMidYMid meet">
<metadata>
Created by potrace 1.16, written by Peter Selinger 2001-2019
</metadata>
<g transform="translate(0.000000,131.000000) scale(0.100000,-0.100000)"
fill="#000000" stroke="none">
<path d="M520 1289 c-130 -34 -234 -93 -326 -184 -137 -135 -194 -268 -194
-450 0 -182 57 -315 194 -450 141 -140 308 -205 526 -205 218 0 385 65 526
205 136 135 195 270 195 450 0 180 -59 315 -195 450 -93 93 -197 151 -330 185
-108 27 -290 27 -396 -1z m345 -35 c215 -41 379 -164 466 -349 15 -33 31 -72
34 -87 6 -25 4 -27 -30 -34 -69 -13 -135 3 -253 61 -130 63 -164 67 -228 30
-88 -51 -123 -171 -69 -232 l25 -28 20 24 c11 13 23 35 25 50 12 60 21 76 47
85 15 5 31 6 35 2 4 -4 10 -41 14 -83 7 -83 26 -113 75 -113 12 0 26 -4 29
-10 11 -18 -49 -10 -85 11 -47 29 -50 34 -50 107 0 72 -14 81 -30 20 -21 -81
-27 -93 -53 -108 -20 -11 -31 -12 -44 -4 -29 18 -55 71 -62 127 l-6 52 -199
57 c-152 44 -202 55 -208 45 -4 -6 -6 -16 -5 -22 7 -22 89 -68 227 -128 115
-50 145 -68 145 -83 0 -17 -16 -21 -173 -41 -188 -23 -255 -41 -260 -66 -10
-49 118 -49 573 -3 53 5 68 -2 104 -49 34 -45 39 -88 15 -123 -15 -21 -14 -22
14 -22 62 0 128 29 170 73 l40 44 91 6 c109 7 110 5 54 -93 -79 -134 -219
-245 -378 -297 -105 -34 -274 -42 -385 -19 -292 62 -510 311 -510 584 0 216
146 457 337 556 18 9 79 27 136 41 56 13 114 28 127 33 30 12 118 6 225 -14z"/>
<path d="M647 492 c-88 -15 -88 -15 -82 -41 9 -38 32 -51 93 -51 80 0 234 72
216 101 -8 13 -128 9 -227 -9z"/>
<path d="M835 419 c-23 -17 -71 -36 -114 -47 l-75 -18 23 -23 c21 -21 30 -23
91 -19 74 6 121 27 153 69 24 33 16 69 -16 68 -12 0 -40 -14 -62 -30z"/>
</g>
</svg>
